# xmcd
#
# Track frame offsets:
#       150
#       15067
#       34330
#       69437
#       82810
#       98845
#       123517
#       150807
#       180485
#       204425
#       228435
#       248845
#       263377
#       285340
#       309342
#
# Disc length: 4385 seconds
#
# Revision: 0
# Processed by: cddbd v1.4PL0 Copyright (c) Steve Scherf et al.
# Submitted via: CD-DA_X-Tractor v0.23
#
DISCID=a4111f0f
DTITLE=Climax Blues Band - got it right-Greatest Hits
DYEAR=1999
DGENRE=Rock
TTITLE0=Don't Start Me Talkin'
TTITLE1=A Stranger In Your Town
TTITLE2=Flight
TTITLE3=Please Don't Help Me
TTITLE4=Hey Mama
TTITLE5=Shake Your Love
TTITLE6=All The Time In The World
TTITLE7=Goin' To New York
TTITLE8=Reaching Out
TTITLE9=Running Out Of Time
TTITLE10=Using The Power
TTITLE11=Couldn't Get It Right
TTITLE12=Mighty Five
TTITLE13=Fool For Bright Lights
TTITLE14=The Last Chance Saloon (Live)
EXTD=
EXTT0=
EXTT1=
EXTT2=
EXTT3=
EXTT4=
EXTT5=
EXTT6=
EXTT7=
EXTT8=
EXTT9=
EXTT10=
EXTT11=
EXTT12=
EXTT13=
EXTT14=
PLAYORDER=
